<svg width="20" height="21" viewBox="0 0 20 21" fill="none" xmlns="http://www.w3.org/2000/svg">
<path d="M0.450003 9.07499L4.65 4.87499C4.88334 4.64166 5.15834 4.47499 5.475 4.37499C5.79167 4.27499 6.11667 4.25833 6.45 4.32499L7.75 4.59999C6.85 5.66666 6.14167 6.63333 5.625 7.49999C5.10834 8.36666 4.60834 9.41666 4.125 10.65L0.450003 9.07499ZM5.575 11.35C5.95834 10.15 6.47934 9.01666 7.138 7.94999C7.79667 6.88333 8.59234 5.88333 9.525 4.94999C10.9917 3.48333 12.6667 2.38733 14.55 1.66199C16.4333 0.936659 18.1917 0.715992 19.825 0.999992C20.1083 2.63333 19.8917 4.39166 19.175 6.27499C18.4583 8.15833 17.3667 9.83333 15.9 11.3C14.9833 12.2167 13.9833 13.0127 12.9 13.688C11.8167 14.3633 10.675 14.8923 9.475 15.275L5.575 11.35ZM12.475 8.34999C12.8583 8.73333 13.3293 8.92499 13.888 8.92499C14.4467 8.92499 14.9173 8.73333 15.3 8.34999C15.6833 7.96666 15.875 7.49599 15.875 6.93799C15.875 6.37999 15.6833 5.90899 15.3 5.52499C14.9167 5.14166 14.4457 4.94999 13.887 4.94999C13.3283 4.94999 12.8577 5.14166 12.475 5.52499C12.0917 5.90833 11.9 6.37933 11.9 6.93799C11.9 7.49666 12.0917 7.96733 12.475 8.34999ZM11.775 20.375L10.175 16.7C11.4083 16.2167 12.4627 15.7167 13.338 15.2C14.2133 14.6833 15.184 13.975 16.25 13.075L16.5 14.375C16.5667 14.7083 16.55 15.0377 16.45 15.363C16.35 15.6883 16.1833 15.9673 15.95 16.2L11.775 20.375ZM2.05 14.55C2.63334 13.9667 3.34167 13.6707 4.175 13.662C5.00834 13.6533 5.71667 13.941 6.3 14.525C6.88334 15.1083 7.175 15.8167 7.175 16.65C7.175 17.4833 6.88334 18.1917 6.3 18.775C5.88334 19.1917 5.18767 19.55 4.213 19.85C3.23834 20.15 1.89234 20.4167 0.175003 20.65C0.408336 18.9333 0.675003 17.5917 0.975003 16.625C1.275 15.6583 1.63334 14.9667 2.05 14.55Z" fill="#FFAA06"/>
</svg>
