<svg width="20" height="21" viewBox="0 0 20 21" fill="none" xmlns="http://www.w3.org/2000/svg">
<path d="M0.449988 9.07499L4.64999 4.87499C4.88332 4.64166 5.15832 4.47499 5.47499 4.37499C5.79165 4.27499 6.11665 4.25833 6.44999 4.32499L7.74999 4.59999C6.84999 5.66666 6.14165 6.63333 5.62499 7.49999C5.10832 8.36666 4.60832 9.41666 4.12499 10.65L0.449988 9.07499ZM5.57499 11.35C5.95832 10.15 6.47932 9.01666 7.13799 7.94999C7.79665 6.88333 8.59232 5.88333 9.52499 4.94999C10.9917 3.48333 12.6667 2.38733 14.55 1.66199C16.4333 0.936659 18.1917 0.715992 19.825 0.999992C20.1083 2.63333 19.8917 4.39166 19.175 6.27499C18.4583 8.15833 17.3667 9.83333 15.9 11.3C14.9833 12.2167 13.9833 13.0127 12.9 13.688C11.8167 14.3633 10.675 14.8923 9.47499 15.275L5.57499 11.35ZM12.475 8.34999C12.8583 8.73333 13.3293 8.92499 13.888 8.92499C14.4467 8.92499 14.9173 8.73333 15.3 8.34999C15.6833 7.96666 15.875 7.49599 15.875 6.93799C15.875 6.37999 15.6833 5.90899 15.3 5.52499C14.9167 5.14166 14.4457 4.94999 13.887 4.94999C13.3283 4.94999 12.8577 5.14166 12.475 5.52499C12.0917 5.90833 11.9 6.37933 11.9 6.93799C11.9 7.49666 12.0917 7.96733 12.475 8.34999ZM11.775 20.375L10.175 16.7C11.4083 16.2167 12.4627 15.7167 13.338 15.2C14.2133 14.6833 15.184 13.975 16.25 13.075L16.5 14.375C16.5667 14.7083 16.55 15.0377 16.45 15.363C16.35 15.6883 16.1833 15.9673 15.95 16.2L11.775 20.375ZM2.04999 14.55C2.63332 13.9667 3.34165 13.6707 4.17499 13.662C5.00832 13.6533 5.71665 13.941 6.29999 14.525C6.88332 15.1083 7.17499 15.8167 7.17499 16.65C7.17499 17.4833 6.88332 18.1917 6.29999 18.775C5.88332 19.1917 5.18765 19.55 4.21299 19.85C3.23832 20.15 1.89232 20.4167 0.174988 20.65C0.408321 18.9333 0.674988 17.5917 0.974988 16.625C1.27499 15.6583 1.63332 14.9667 2.04999 14.55Z" fill="#0C0C0C"/>
</svg>
